<svg width="35" height="35" viewBox="0 0 35 35" fill="none" xmlns="http://www.w3.org/2000/svg">
<g clip-path="url(#clip0_13_55)">
<path d="M17.4999 0C27.1643 0 35 7.83562 35 17.5001C35 27.1645 27.1644 35 17.5001 35C7.83574 35 0 27.1644 0 17.5001C0 7.83574 7.83454 0 17.4999 0Z" fill="#5E5E5E"/>
<path d="M23.5396 7.65405H11.4592C9.36033 7.65405 7.65405 9.36141 7.65405 11.4592V23.5408C7.65405 25.6397 9.36141 27.346 11.4592 27.346H23.5408C25.6397 27.346 27.346 25.6387 27.346 23.5408V11.4592C27.3459 9.36141 25.6385 7.65405 23.5396 7.65405ZM24.7384 9.8558L25.1694 9.85472V13.1229L21.8772 13.1338L21.8663 9.86565L24.7384 9.8558ZM17.5 14.2056C20.2311 14.2056 20.7944 16.7693 20.7944 17.501C20.7944 19.3155 19.3156 20.7942 17.5 20.7942C15.6833 20.7942 14.2057 19.3155 14.2057 17.501C14.2045 16.7693 14.7689 14.2056 17.5 14.2056ZM25.188 23.3023C25.188 24.3425 24.3425 25.1891 23.3002 25.1891H11.6626C10.6213 25.1891 9.77482 24.3436 9.77482 23.3023V15.3081H12.5092C12.2554 15.9326 12.1121 16.7858 12.1121 17.5011C12.1121 20.4696 14.5271 22.8857 17.4967 22.8857C20.4662 22.8857 22.88 20.4696 22.88 17.5011C22.88 16.7858 22.7367 15.9326 22.484 15.3081H25.1856V23.3023H25.188Z" fill="white"/>
</g>
<defs>
<clipPath id="clip0_13_55">
<rect width="35" height="35" fill="white"/>
</clipPath>
</defs>
</svg>
